<svg xmlns="http://www.w3.org/2000/svg" viewBox="0 0 229.72 229.71">
  <g id="Gruppe_70" data-name="Gruppe 70" transform="translate(-271.65 0)">
    <g id="Gruppe_58" data-name="Gruppe 58">
      <path id="Pfad_43" data-name="Pfad 43" d="M386.51,165.01a50.17,50.17,0,1,1,50.17-50.17A50.225,50.225,0,0,1,386.51,165.01Zm0-97.35a47.17,47.17,0,1,0,47.17,47.17,47.223,47.223,0,0,0-47.17-47.17Z"/>
      <g id="Gruppe_44" data-name="Gruppe 44">
        <path id="Pfad_44" data-name="Pfad 44" d="M399.76,111.11a7.67,7.67,0,0,0,2.31,1.97c3.08,1.62,6.88.43,9.54-1.42a8.371,8.371,0,0,1,4.9-1.51c1.61-.02,3.88-.6,4.74-2.09a2.863,2.863,0,0,0-1.04-3.76,3.455,3.455,0,0,0-4.03.06,1.963,1.963,0,0,0-.66,2.67,1.469,1.469,0,0,0,1.45.84c.81-.08,1.16-.41,1.39-1.3-.38-.17-.77-.35-1.35-.62a3.238,3.238,0,0,1,.61-.5,1.46,1.46,0,0,1,1.65.2,1.437,1.437,0,0,1-.23,1.64,3.5,3.5,0,0,1-2.19,1.18,7.407,7.407,0,0,1-5.95-1.62c-2.61-2.07-6.14-4.81-9.58-2.96a17.321,17.321,0,0,0-3.84,2.66,10.978,10.978,0,0,0-1.27,1.82c.15-.22,2.16.53,2.39.77.54.55.72,1.39,1.19,1.99Zm17.13-4.09a1.069,1.069,0,0,1-.67-1.38C416.43,106.07,416.65,106.54,416.89,107.02Zm3.81-.25c.06,1.15-.05,1.32-1.35,1.8C419.86,107.88,420.29,107.32,420.7,106.77Zm-17.22,5.86a15.151,15.151,0,0,0,2.53-1.04,17.1,17.1,0,0,0,2.13-1.88l4.08.41c-3.35,2.51-6.18,3.65-8.74,2.51Zm2.24-3.56c.41.13.74.23,1.24.39-.41.45-.71.79-1.15,1.27-.04-.65-.06-1.08-.09-1.65Zm-3.59-4.04a5.868,5.868,0,0,1,5.79.69c1.26.99,2.6,1.88,4.13,2.97-.84.06-1.46.14-2.08.14a11.481,11.481,0,0,1-4.94-1.01,8.633,8.633,0,0,0-4.54-.91,7.6,7.6,0,0,1-.92-.06,5.942,5.942,0,0,1,2.56-1.83Z"/>
        <path id="Pfad_45" data-name="Pfad 45" d="M374.82,109.12c.24-.24,2.24-.99,2.39-.77a12.1,12.1,0,0,0-1.27-1.82,17.556,17.556,0,0,0-3.84-2.66c-3.44-1.84-6.97.9-9.58,2.96a7.453,7.453,0,0,1-5.95,1.62,3.5,3.5,0,0,1-2.19-1.18,1.437,1.437,0,0,1-.23-1.64,1.46,1.46,0,0,1,1.65-.2,6.176,6.176,0,0,1,.61.5c-.58.27-.97.44-1.35.62.24.89.59,1.22,1.39,1.3a1.454,1.454,0,0,0,1.45-.84,1.984,1.984,0,0,0-.66-2.67,3.455,3.455,0,0,0-4.03-.06,2.863,2.863,0,0,0-1.04,3.76c.86,1.49,3.13,2.07,4.74,2.09a8.465,8.465,0,0,1,4.9,1.51c2.66,1.85,6.46,3.05,9.54,1.42a7.67,7.67,0,0,0,2.31-1.97c.47-.6.65-1.44,1.19-1.99Zm-17.65-3.49a1.064,1.064,0,0,1-.67,1.38C356.73,106.53,356.96,106.06,357.17,105.63Zm-3.13,2.92c-1.3-.48-1.41-.65-1.35-1.8C353.1,107.3,353.52,107.86,354.04,108.55Zm7.13,1.55c1.5-.15,2.87-.29,4.08-.41a17.094,17.094,0,0,0,2.13,1.88,15.151,15.151,0,0,0,2.53,1.04c-2.56,1.14-5.38,0-8.74-2.51Zm6.41.6c-.44-.48-.74-.82-1.15-1.27.5-.15.83-.26,1.24-.39-.03.57-.05,1.01-.09,1.65Zm6.23-3.86a7.48,7.48,0,0,1-.92.06,8.633,8.633,0,0,0-4.54.91,11.63,11.63,0,0,1-4.94,1.01c-.62,0-1.24-.08-2.08-.14,1.53-1.09,2.87-1.98,4.13-2.97a5.868,5.868,0,0,1,5.79-.69,6,6,0,0,1,2.56,1.83Z"/>
        <path id="Pfad_46" data-name="Pfad 46" d="M401.82,138.63c-1.09-.48-1.93.81-2.91,1.03-1.24.28-2.55-.69-3.5-1.35a12.456,12.456,0,0,0-3.11-1.86c-1.37-.43-2.47.42-3.61,1.06a4.484,4.484,0,0,1-4.34,0c-1.13-.64-2.25-1.48-3.61-1.06a11.724,11.724,0,0,0-3.11,1.86c-.96.66-2.26,1.63-3.51,1.35-.98-.22-1.82-1.51-2.91-1.03a1.211,1.211,0,0,0-.4,1.76c.63.94,2.4.34,3.32.88a5.209,5.209,0,0,1,2.19,2.56,7.178,7.178,0,0,0,1.6,2.87c2.05,1.73,4.9.76,7.22.33h0c3.23-.61,7.14,2.08,9.98-.33a7.3,7.3,0,0,0,1.6-2.87,5.167,5.167,0,0,1,2.19-2.56c.92-.54,2.69.05,3.32-.88a1.211,1.211,0,0,0-.4-1.76Zm-23.57.75c.51-.41,1.02-.85,1.57-1.21a3.4,3.4,0,0,1,3.06-.52c.89.33,1.45,1.14,2.32,1.49a2.437,2.437,0,0,0,1.32.14,2.311,2.311,0,0,0,1.31-.14c.87-.34,1.43-1.16,2.32-1.49a3.366,3.366,0,0,1,3.06.52c.55.36,1.05.8,1.57,1.21.23.19,1.32,1.2,1.62,1.12a22.05,22.05,0,0,1-4.97.88,47.2,47.2,0,0,1-4.91-.25,44.85,44.85,0,0,1-4.91.25,21.6,21.6,0,0,1-4.97-.88c.3.08,1.39-.93,1.62-1.12Zm17.3,4.74a5.335,5.335,0,0,1-1.19,2.08,2.546,2.546,0,0,1-1.55.63,10.363,10.363,0,0,1-2.89-.57,19.67,19.67,0,0,0-3.68,0,17.223,17.223,0,0,0-3.13,0,10.435,10.435,0,0,1-2.89.57,2.57,2.57,0,0,1-1.55-.63,5.147,5.147,0,0,1-1.19-2.08,6.492,6.492,0,0,0-1.31-2.59c.03-.02.09-.07.14-.06,1.03.19,2.05.37,3.08.56,1.79.33,3.59.63,5.35,1.02a7.151,7.151,0,0,0,3.53,0c1.77-.39,3.57-.7,5.36-1.02,1.02-.18,2.05-.37,3.08-.56.05,0,.1.05.14.06A6.343,6.343,0,0,0,395.55,144.12Z"/>
        <path id="Pfad_47" data-name="Pfad 47" d="M350.7,96.58c.22.03.34.82.78.95a1.371,1.371,0,0,0,1.57-1.66,6.561,6.561,0,0,0-.48-.85c-.68-1.33-2.6-1.06-3.48-.14a3.171,3.171,0,0,0-.39,3.51,3.946,3.946,0,0,0,5.34,1.84c1.88-.77,3.57-2.48,5.05-3.7a10.388,10.388,0,0,1,6.23-2.31c3.65.06,7.36,2.56,10.09,4.78,4.22,3.43,8.49,9.13,7.77,14.88a17.906,17.906,0,0,1-2.13,6.64c-.79,1.39-3.09,3.79-2.56,5.55.44,1.48,3.63,1.51,4.85,2.03a9.936,9.936,0,0,0,3.03,1.08v-.74l.14-.03a2.3,2.3,0,0,1-1.56-.94,5.124,5.124,0,0,1-.67-4.03c.68-5.03.97-9.89-.53-14.77a35.967,35.967,0,0,0-4.49-8.57,31.875,31.875,0,0,0-4.74-5.31c-2.74-2.57-6.24-4.54-10.13-4.08-3.54.42-6.89,2.9-9.14,5.57a8.766,8.766,0,0,1-2.48,2.3c-.97.52-2.95.74-3-.91-.01-.32.53-1.17.92-1.11Zm33.23,17.78H384c.03.37.08.74.09,1.12a25.462,25.462,0,0,1,.06,2.62,24.045,24.045,0,0,1-.83,5.46c-.41,1.35-.89,3.63-2.74,2.71-1.57-.78-.42-2.54.18-3.58a23.347,23.347,0,0,0,2.3-4.33,27.4,27.4,0,0,0,.86-4ZM353.98,99.14a6.8,6.8,0,0,0,1.65-1.85,19.229,19.229,0,0,1,2.14-2.7c2.82-2.79,8.29-4.15,11.91-2.26a20.194,20.194,0,0,1,3.94,3.15c.35.31.71.61,1.06.93.14.13.26.28.38.41-.02.03-.05.05-.07.08-.29-.2-.59-.39-.88-.59a31.677,31.677,0,0,0-2.73-1.83,11.132,11.132,0,0,0-10.5-.24,15.735,15.735,0,0,0-4.14,3.05,8.521,8.521,0,0,1-2.37,1.9c-.24.12-.48.23-.72.34a.555.555,0,0,0-.06-.08c.13-.1.25-.21.39-.31Zm-4.71-2.71c.11-.21.1-.47.21-.69a1.361,1.361,0,0,1,.44-.51,1.8,1.8,0,0,1,1.34-.27,1.975,1.975,0,0,1,1.14,1.02c.16.36-.06,1.19-.61.97-.25-.1-.12-.43-.25-.68a1.16,1.16,0,0,0-.56-.51c-.63-.23-1.24.31-1.71.66Z"/>
        <path id="Pfad_48" data-name="Pfad 48" d="M386.63,129.72v-.02s-.08.01-.12.01c.04,0,.08.01.12.01Z"/>
        <path id="Pfad_49" data-name="Pfad 49" d="M386.4,129.72s.08-.01.12-.01a.487.487,0,0,1-.12-.01v.02Z"/>
        <path id="Pfad_50" data-name="Pfad 50" d="M386.65,129.19a9.543,9.543,0,0,0,3.02-1.08c1.23-.53,4.41-.56,4.85-2.03.53-1.77-1.77-4.17-2.56-5.55a17.891,17.891,0,0,1-2.12-6.64c-.71-5.74,3.56-11.44,7.77-14.88,2.73-2.23,6.44-4.73,10.09-4.78a10.435,10.435,0,0,1,6.23,2.31c1.48,1.22,3.17,2.93,5.05,3.7a3.954,3.954,0,0,0,5.34-1.84,3.171,3.171,0,0,0-.39-3.51c-.88-.92-2.8-1.19-3.48.14a6.565,6.565,0,0,0-.48.85,1.368,1.368,0,0,0,1.57,1.66c.44-.14.56-.92.78-.95.38-.06.92.79.92,1.11-.05,1.65-2.02,1.43-3,.91a8.766,8.766,0,0,1-2.48-2.3c-2.25-2.67-5.61-5.15-9.14-5.57-3.89-.47-7.38,1.5-10.13,4.08a32.276,32.276,0,0,0-4.74,5.31,35.59,35.59,0,0,0-4.49,8.57c-1.51,4.89-1.21,9.75-.53,14.77a5.124,5.124,0,0,1-.67,4.03,2.281,2.281,0,0,1-1.56.94.611.611,0,0,1,.13.03v.74Zm35.41-33.43a1.2,1.2,0,0,0-.56.51c-.13.24,0,.57-.24.68-.56.22-.77-.62-.61-.97a1.991,1.991,0,0,1,1.15-1.02,1.787,1.787,0,0,1,1.33.27,1.268,1.268,0,0,1,.44.51c.1.22.1.48.2.69-.46-.36-1.07-.9-1.71-.66Zm-23.7.65c.34-.32.7-.62,1.05-.93a20.194,20.194,0,0,1,3.94-3.15c3.63-1.88,9.1-.53,11.91,2.26a18.532,18.532,0,0,1,2.14,2.7,6.8,6.8,0,0,0,1.65,1.85,3.784,3.784,0,0,1,.39.31.555.555,0,0,1-.06.08c-.24-.11-.48-.23-.72-.34a8.521,8.521,0,0,1-2.37-1.9,15.9,15.9,0,0,0-4.14-3.05,11.132,11.132,0,0,0-10.5.24c-.96.53-1.82,1.21-2.73,1.83-.29.2-.58.4-.88.59-.02-.03-.05-.05-.07-.08.13-.14.25-.29.38-.41Zm-9.42,19.08c.01-.37.06-.74.09-1.12h.08a26.849,26.849,0,0,0,.86,4,23.961,23.961,0,0,0,2.3,4.33c.61,1.04,1.76,2.8.19,3.58-1.85.91-2.33-1.36-2.74-2.71a23.875,23.875,0,0,1-.83-5.46,22.917,22.917,0,0,1,.06-2.62Z"/>
        <path id="Pfad_51" data-name="Pfad 51" d="M386.4,129.7s.08.01.12.01a.487.487,0,0,0,.12-.01v-.63a.707.707,0,0,0-.12-.02c-.04,0-.08.02-.12.02Z"/>
      </g>
      <g id="Gruppe_57" data-name="Gruppe 57">
        <g id="Gruppe_47" data-name="Gruppe 47">
          <g id="Gruppe_45" data-name="Gruppe 45">
            <path id="Pfad_52" data-name="Pfad 52" d="M379.79,68.14a1.521,1.521,0,0,1-1.01-.39,1.494,1.494,0,0,1-.49-1.17,501.3,501.3,0,0,1,5.13-54.54l1.61-10.76a1.5,1.5,0,0,1,2.96,0l1.61,10.76a504.043,504.043,0,0,1,5.13,54.54,1.494,1.494,0,0,1-.49,1.17,1.455,1.455,0,0,1-1.21.37,46.617,46.617,0,0,0-13.03,0c-.07,0-.14.01-.21.01Zm6.72-56.51-.13.85a499.144,499.144,0,0,0-5.02,52.46,49.251,49.251,0,0,1,10.3,0,501.834,501.834,0,0,0-5.02-52.46l-.13-.85Z"/>
            <path id="Pfad_53" data-name="Pfad 53" d="M386.52,229.71h0a1.5,1.5,0,0,1-1.48-1.28l-1.61-10.76a504.043,504.043,0,0,1-5.13-54.54,1.491,1.491,0,0,1,1.7-1.54,46.617,46.617,0,0,0,13.03,0,1.523,1.523,0,0,1,1.21.37,1.494,1.494,0,0,1,.49,1.17,503.094,503.094,0,0,1-5.13,54.54l-1.61,10.76a1.5,1.5,0,0,1-1.48,1.28Zm-5.15-64.94a501.844,501.844,0,0,0,5.03,52.46l.13.85.13-.85a498.121,498.121,0,0,0,5.02-52.46,49.251,49.251,0,0,1-10.3,0Z"/>
          </g>
          <g id="Gruppe_46" data-name="Gruppe 46">
            <path id="Pfad_54" data-name="Pfad 54" d="M434.73,123.08a1.506,1.506,0,0,1-1.11-.49,1.455,1.455,0,0,1-.37-1.21,48.665,48.665,0,0,0,.46-6.52,47.064,47.064,0,0,0-.46-6.52,1.523,1.523,0,0,1,.37-1.21,1.542,1.542,0,0,1,1.17-.49,504.041,504.041,0,0,1,54.54,5.13l10.76,1.61a1.5,1.5,0,0,1,0,2.96l-10.76,1.61a504.041,504.041,0,0,1-54.54,5.13h-.06Zm1.7-13.38a49.253,49.253,0,0,1,0,10.3,504.545,504.545,0,0,0,52.46-5.02l.85-.13-.85-.13a499.14,499.14,0,0,0-52.46-5.02Z"/>
            <path id="Pfad_55" data-name="Pfad 55" d="M338.3,123.08h-.06a503.986,503.986,0,0,1-54.55-5.13l-10.76-1.61a1.5,1.5,0,0,1,0-2.96l10.76-1.61a503.987,503.987,0,0,1,54.55-5.13,1.48,1.48,0,0,1,1.17.49,1.455,1.455,0,0,1,.37,1.21,48.435,48.435,0,0,0-.46,6.52,46.85,46.85,0,0,0,.46,6.52,1.489,1.489,0,0,1-1.48,1.7Zm-55.01-8.22.85.13a499.14,499.14,0,0,0,52.46,5.02,49.253,49.253,0,0,1,0-10.3,499.141,499.141,0,0,0-52.46,5.02l-.85.13Z"/>
          </g>
        </g>
        <g id="Gruppe_50" data-name="Gruppe 50">
          <g id="Gruppe_48" data-name="Gruppe 48">
            <path id="Pfad_56" data-name="Pfad 56" d="M356.42,78.09a1.49,1.49,0,0,1-1.15-.53,1.505,1.505,0,0,1-.14-1.77,15.694,15.694,0,0,0,1.84-7.73c0-5.43-4.63-10.35-9.53-15.57-4.38-4.67-3.63-10.81-2.97-16.23.21-1.68.4-3.27.45-4.76.26-8.36-7.36-13.42-7.44-13.47a1.5,1.5,0,0,1,.76-2.76c11.13-.39,13.61,11.46,15.07,18.49,1.32,6.35,7.45,13.59,14.24,16.85,9.32,4.46,13.73,15.46,13.73,16.03a1.507,1.507,0,0,1-1.29,1.49,47.012,47.012,0,0,0-22.63,9.64,1.448,1.448,0,0,1-.34.2A1.567,1.567,0,0,1,356.42,78.09ZM343.51,19.57a17.836,17.836,0,0,1,4.4,12.03c-.05,1.63-.26,3.36-.47,5.03-.61,5-1.25,10.17,2.18,13.81,5.32,5.66,10.35,11.01,10.35,17.63a21.21,21.21,0,0,1-.48,4.51,50.037,50.037,0,0,1,18.11-7.11c-1.53-3.02-5.27-9.25-11.33-12.15-7.68-3.68-14.36-11.65-15.88-18.94-1.33-6.39-2.92-12.28-6.87-14.81Z"/>
            <path id="Pfad_57" data-name="Pfad 57" d="M416.63,78.1a1.518,1.518,0,0,1-.59-.12l-.04-.02a1.683,1.683,0,0,1-.34-.2,47.012,47.012,0,0,0-22.63-9.64,1.5,1.5,0,0,1-1.29-1.49c0-.57,4.41-11.56,13.73-16.03,6.8-3.26,12.92-10.5,14.24-16.85,1.47-7.03,3.94-18.88,15.07-18.49a1.5,1.5,0,0,1,.76,2.76c-.07.05-7.69,5.16-7.43,13.48.05,1.5.24,3.08.45,4.76.66,5.42,1.42,11.56-2.97,16.23-4.9,5.22-9.53,10.15-9.53,15.57a15.875,15.875,0,0,0,1.75,7.58,1.5,1.5,0,0,1-1.16,2.45h-.02Zm-21.2-12.63a50.036,50.036,0,0,1,18.11,7.11,21.137,21.137,0,0,1-.48-4.51c0-6.61,5.03-11.96,10.35-17.63,3.42-3.64,2.79-8.81,2.18-13.81-.2-1.67-.42-3.4-.47-5.03a17.885,17.885,0,0,1,4.4-12.03c-3.95,2.53-5.54,8.42-6.87,14.81-1.52,7.29-8.2,15.26-15.88,18.94-6.06,2.9-9.8,9.13-11.33,12.15Z"/>
          </g>
          <g id="Gruppe_49" data-name="Gruppe 49">
            <path id="Pfad_58" data-name="Pfad 58" d="M434.27,214.37h0c-10.71,0-13.12-11.58-14.57-18.5-1.32-6.35-7.44-13.59-14.24-16.85-9.2-4.41-13.45-15.03-13.62-15.48a1.5,1.5,0,0,1,1.19-2.04,47.012,47.012,0,0,0,22.63-9.64,1.385,1.385,0,0,1,.33-.2,1.537,1.537,0,0,1,1.76.4,1.491,1.491,0,0,1,.14,1.77,15.759,15.759,0,0,0-1.83,7.72c0,5.43,4.63,10.36,9.53,15.57,4.38,4.67,3.63,10.81,2.97,16.23-.21,1.68-.4,3.27-.45,4.76-.26,8.32,7.36,13.43,7.44,13.48a1.5,1.5,0,0,1-.77,2.75h-.5Zm-38.84-50.2c1.53,3.02,5.28,9.25,11.33,12.15,7.68,3.68,14.36,11.65,15.88,18.94,1.33,6.38,2.92,12.28,6.87,14.81a17.885,17.885,0,0,1-4.4-12.03c.05-1.63.26-3.36.47-5.03.61-5,1.25-10.17-2.18-13.81-5.32-5.66-10.35-11.01-10.35-17.63a21.21,21.21,0,0,1,.48-4.51,50.037,50.037,0,0,1-18.11,7.11Z"/>
            <path id="Pfad_59" data-name="Pfad 59" d="M338.75,214.37h-.5a1.5,1.5,0,0,1-.76-2.76c.07-.05,7.69-5.16,7.43-13.48-.05-1.5-.24-3.08-.45-4.76-.66-5.42-1.42-11.56,2.97-16.23,4.9-5.22,9.53-10.15,9.53-15.57a15.358,15.358,0,0,0-1.83-7.72,1.5,1.5,0,0,1,.12-1.79,1.522,1.522,0,0,1,1.75-.4,1.615,1.615,0,0,1,.36.21A47.012,47.012,0,0,0,380,161.51a1.5,1.5,0,0,1,1.29,1.59,1.358,1.358,0,0,1-.12.49c-.51,1.26-4.76,11.19-13.61,15.43-6.8,3.26-12.92,10.5-14.24,16.85-1.44,6.92-3.85,18.5-14.56,18.5Zm20.73-57.31a21.137,21.137,0,0,1,.48,4.51c0,6.61-5.02,11.96-10.34,17.63-3.42,3.64-2.79,8.81-2.18,13.81.2,1.67.42,3.4.47,5.03a17.885,17.885,0,0,1-4.4,12.03c3.95-2.53,5.54-8.42,6.87-14.81,1.52-7.29,8.2-15.26,15.88-18.94,6.07-2.91,9.81-9.12,11.33-12.15a50.036,50.036,0,0,1-18.11-7.11Z"/>
          </g>
        </g>
        <g id="Gruppe_53" data-name="Gruppe 53">
          <g id="Gruppe_51" data-name="Gruppe 51">
            <path id="Pfad_60" data-name="Pfad 60" d="M347.66,87.02a1.475,1.475,0,0,1-1.1-.48,504.574,504.574,0,0,1-34.94-42.19l-6.47-8.75a1.5,1.5,0,0,1,2.1-2.1L316,39.97a506.34,506.34,0,0,1,42.2,34.94,1.492,1.492,0,0,1,.48,1.18,1.509,1.509,0,0,1-.59,1.12,48.958,48.958,0,0,0-4.94,4.28,47.755,47.755,0,0,0-4.28,4.93,1.509,1.509,0,0,1-1.12.59h-.07ZM313.52,41.87l.51.69a500.836,500.836,0,0,0,33.54,40.65,48.874,48.874,0,0,1,7.29-7.28,500.841,500.841,0,0,0-40.65-33.54l-.69-.51Z"/>
            <path id="Pfad_61" data-name="Pfad 61" d="M466.67,196.51a1.549,1.549,0,0,1-.89-.29l-8.75-6.47a503.3,503.3,0,0,1-42.19-34.94,1.492,1.492,0,0,1-.48-1.18,1.509,1.509,0,0,1,.59-1.12,48.041,48.041,0,0,0,4.94-4.28,48.828,48.828,0,0,0,4.28-4.93,1.509,1.509,0,0,1,1.12-.59,1.473,1.473,0,0,1,1.18.48,504.576,504.576,0,0,1,34.94,42.19l6.47,8.75a1.5,1.5,0,0,1-1.21,2.39Zm-48.5-42.71a499.489,499.489,0,0,0,40.65,33.54l.7.51-.51-.7a500.837,500.837,0,0,0-33.54-40.65,51.114,51.114,0,0,1-3.45,3.84,49.224,49.224,0,0,1-3.84,3.45Z"/>
          </g>
          <g id="Gruppe_52" data-name="Gruppe 52">
            <path id="Pfad_62" data-name="Pfad 62" d="M425.36,87.01h-.07a1.509,1.509,0,0,1-1.12-.59,47.755,47.755,0,0,0-4.28-4.93,49.072,49.072,0,0,0-4.93-4.29,1.509,1.509,0,0,1-.59-1.12,1.485,1.485,0,0,1,.48-1.17,505.861,505.861,0,0,1,42.19-34.94l8.75-6.47a1.5,1.5,0,0,1,2.1,2.1l-6.47,8.75a503.9,503.9,0,0,1-34.94,42.19,1.475,1.475,0,0,1-1.1.48Zm-7.2-11.1A51.114,51.114,0,0,1,422,79.36a49.226,49.226,0,0,1,3.45,3.84,500.108,500.108,0,0,0,33.54-40.65l.51-.69-.69.51a504.3,504.3,0,0,0-40.65,33.54Z"/>
            <path id="Pfad_63" data-name="Pfad 63" d="M306.36,196.51a1.5,1.5,0,0,1-1.21-2.39l6.47-8.74a505.659,505.659,0,0,1,34.94-42.2,1.495,1.495,0,0,1,2.29.11,46.653,46.653,0,0,0,4.29,4.93,47.755,47.755,0,0,0,4.93,4.28,1.509,1.509,0,0,1,.59,1.12,1.485,1.485,0,0,1-.48,1.17,502.433,502.433,0,0,1-42.2,34.94l-8.75,6.47a1.479,1.479,0,0,1-.89.29Zm41.21-50a500.105,500.105,0,0,0-33.54,40.65l-.51.69.69-.51a502.56,502.56,0,0,0,40.65-33.54,48.875,48.875,0,0,1-7.28-7.29Z"/>
          </g>
        </g>
        <g id="Gruppe_56" data-name="Gruppe 56">
          <g id="Gruppe_54" data-name="Gruppe 54">
            <path id="Pfad_64" data-name="Pfad 64" d="M434.69,109.6a1.507,1.507,0,0,1-1.49-1.29,47.012,47.012,0,0,0-9.64-22.63,1.271,1.271,0,0,1-.2-.34,1.537,1.537,0,0,1,.4-1.76,1.491,1.491,0,0,1,1.77-.14,15.759,15.759,0,0,0,7.72,1.83c5.42,0,10.35-4.63,15.57-9.53,2.53-2.37,5.69-3.48,9.96-3.48a52.137,52.137,0,0,1,6.27.51c1.68.21,3.27.4,4.76.45,8.35.29,13.43-7.36,13.48-7.43a1.5,1.5,0,0,1,2.75.77c.37,11.14-11.43,13.6-18.49,15.07-6.35,1.32-13.59,7.45-16.85,14.24-4.46,9.32-15.46,13.73-16.02,13.73Zm-5.94-21.8a50.036,50.036,0,0,1,7.11,18.11c3.02-1.53,9.25-5.27,12.15-11.33,3.68-7.68,11.65-14.36,18.94-15.88,6.38-1.33,12.27-2.92,14.81-6.87a17.865,17.865,0,0,1-12.03,4.4c-1.63-.05-3.36-.26-5.03-.47a49.749,49.749,0,0,0-5.9-.49c-3.5,0-5.94.82-7.9,2.67-5.67,5.32-11.02,10.35-17.63,10.35a21.21,21.21,0,0,1-4.51-.48Z"/>
            <path id="Pfad_65" data-name="Pfad 65" d="M484.55,164.53a1.488,1.488,0,0,1-1.25-.68h0c-.05-.08-5.15-7.7-13.48-7.44-1.5.05-3.08.24-4.76.45a52.138,52.138,0,0,1-6.27.51c-4.27,0-7.43-1.11-9.96-3.48-5.22-4.9-10.15-9.53-15.57-9.53a15.63,15.63,0,0,0-7.73,1.84,1.519,1.519,0,0,1-1.79-.13,1.492,1.492,0,0,1-.39-1.74,1.549,1.549,0,0,1,.21-.35,47.012,47.012,0,0,0,9.64-22.63,1.5,1.5,0,0,1,1.49-1.29c.57,0,11.56,4.41,16.02,13.73,3.26,6.8,10.5,12.92,16.85,14.24,7.06,1.47,18.87,3.93,18.49,15.07a1.5,1.5,0,0,1-1.1,1.39,1.386,1.386,0,0,1-.4.06Zm-14.31-11.12a17.95,17.95,0,0,1,11.51,4.41c-2.53-3.95-8.42-5.54-14.8-6.87-7.29-1.52-15.26-8.2-18.94-15.88-2.9-6.06-9.13-9.8-12.15-11.33a50.037,50.037,0,0,1-7.11,18.11,21.137,21.137,0,0,1,4.51-.48c6.62,0,11.96,5.03,17.63,10.35,1.96,1.84,4.4,2.67,7.9,2.67a49.739,49.739,0,0,0,5.91-.49c1.67-.2,3.4-.42,5.03-.47h.51Z"/>
          </g>
          <g id="Gruppe_55" data-name="Gruppe 55">
            <path id="Pfad_66" data-name="Pfad 66" d="M288.47,164.53a1.513,1.513,0,0,1-1.5-1.45c-.38-11.14,11.43-13.6,18.49-15.07,6.35-1.32,13.59-7.45,16.85-14.24,4.41-9.2,15.03-13.45,15.48-13.62a1.5,1.5,0,0,1,2.04,1.19,47.06,47.06,0,0,0,9.59,22.57,1.5,1.5,0,0,1-1.1,2.52,1.526,1.526,0,0,1-.3-.03,1.284,1.284,0,0,1-.53-.21,15.759,15.759,0,0,0-7.72-1.83c-5.43,0-10.36,4.63-15.57,9.53-2.53,2.37-5.69,3.48-9.96,3.48a52.137,52.137,0,0,1-6.27-.51c-1.68-.21-3.27-.4-4.76-.45-8.34-.29-13.43,7.36-13.48,7.44a1.5,1.5,0,0,1-1.25.68Zm48.7-40.79c-3.02,1.53-9.25,5.28-12.15,11.33-3.68,7.68-11.65,14.36-18.94,15.88-6.38,1.33-12.27,2.92-14.8,6.87a17.837,17.837,0,0,1,12.02-4.4c1.63.05,3.36.26,5.04.47a49.739,49.739,0,0,0,5.91.49c3.5,0,5.94-.82,7.9-2.67,5.66-5.32,11.01-10.35,17.63-10.35a21.211,21.211,0,0,1,4.51.48,50.036,50.036,0,0,1-7.11-18.11Z"/>
            <path id="Pfad_67" data-name="Pfad 67" d="M338.33,109.59a1.487,1.487,0,0,1-.55-.1c-.45-.18-11.07-4.42-15.48-13.62-3.26-6.8-10.5-12.92-16.85-14.24-7.06-1.47-18.87-3.93-18.49-15.07a1.5,1.5,0,0,1,1.1-1.39,1.511,1.511,0,0,1,1.66.63c.05.07,5.15,7.68,13.47,7.43,1.5-.05,3.08-.24,4.76-.45a52.138,52.138,0,0,1,6.27-.51c4.27,0,7.43,1.11,9.96,3.48,5.22,4.9,10.15,9.53,15.57,9.53a15.63,15.63,0,0,0,7.73-1.84,1.519,1.519,0,0,1,1.79.13,1.492,1.492,0,0,1,.39,1.74,1.549,1.549,0,0,1-.21.35,47.012,47.012,0,0,0-9.64,22.63,1.493,1.493,0,0,1-.73,1.09,1.477,1.477,0,0,1-.76.21ZM291.27,71.82c2.53,3.95,8.42,5.54,14.8,6.87,7.3,1.52,15.26,8.2,18.94,15.88,2.91,6.07,9.13,9.81,12.15,11.33a50.037,50.037,0,0,1,7.11-18.11,21.137,21.137,0,0,1-4.51.48c-6.61,0-11.96-5.02-17.63-10.34-1.96-1.84-4.4-2.67-7.91-2.67a49.575,49.575,0,0,0-5.9.49c-1.67.2-3.4.42-5.03.47a17.857,17.857,0,0,1-12.02-4.4Z"/>
          </g>
        </g>
      </g>
    </g>
    <g id="Gruppe_59" data-name="Gruppe 59">
      <path id="Pfad_68" data-name="Pfad 68" d="M362.69,89.41c1.82-.57,3.09-2.22,4.94-2.77,1.32-.39,2.5.48,3.79.53,1.4.06,2.8-.66,4.13-.96.5-.12,1.18-.48,1.69-.21.45.24.37.85.78,1.11.52.33.91-.26,1.38-.43.67-.24,1.42.25,2.11.21a2.64,2.64,0,0,0,1.75-.91,2.412,2.412,0,0,0,.36-.65c.8-1.59-1.15-6.33,1.7-6.42.48-.02.98.15,1.32-.32a.921.921,0,0,0-.32-1.3c-.86-.51-1.94.89-2.33,1.51a6.5,6.5,0,0,0-.79,3.24c-.02,1.23.41,3.46-1.01,4.13a3.457,3.457,0,0,1-3.19-.68c-.44-.55,0-1.69.32-2.23h0a1.117,1.117,0,0,1,1.47-.39c1.2.53.08,2.14-.66,1.48-.47-.44.36-.33.56-.26a.434.434,0,0,0-.53-.6h0a.718.718,0,0,0-.48.76c.32,1.45,3.14.11,1.92-1.4-.39-.48-1.37-.92-1.93-.49a.328.328,0,0,1-.1,0c.02,0,.46-1.54.48-1.64a5.054,5.054,0,0,0,.08-1.9,7.582,7.582,0,0,0-.18-.95c-.09-.36-.55-1.04-.97-1.04-.79,0-.16,1.12-.34,1.6a17.188,17.188,0,0,0-.88,2.12,7.276,7.276,0,0,0-.3,1.61c-1.07-.38-1.32-1.78-1.17-2.75a20.748,20.748,0,0,1,.78-2.66c.42-1.44,1.18-3.44-.35-4.5a2.5,2.5,0,0,0-3.91,1.89,1.964,1.964,0,0,0,1.32,2.17c1.32.42,2.56-1.37,1.42-2.33-.43-.36-1.04.08-1.21.5-.05.12-.1,1.28.06,1.27-.67.05-1.21-.71-1.22-1.28a2.274,2.274,0,0,1,.62-1.5c.79-.86,2.13-1.14,2.77.04,1.23,2.27-.7,4.83-.91,7.12a1.809,1.809,0,0,1-.17-.19,2.484,2.484,0,0,0-1.17-.91c-1.58-.6-3.16-1.03-4.71-.06a2.576,2.576,0,0,0-1.1,2.86,2.139,2.139,0,0,0,1.33,1.06c.89.23,2.22-.28,1.7-1.39-.26-.56-1.49-1.46-1.93-.54-.11.22-.14.66.18.71s1.13-.8.99.08a.718.718,0,0,1-.97.62c-1.17-.56-1.01-1.82-.26-2.72.68-.81,2.03-.77,2.98-.6a4.694,4.694,0,0,1,2.45,1.18,4.934,4.934,0,0,1,.89,1.14c.15.27.31.84.65.93a4.679,4.679,0,0,0-1.71-.46c-1.5.18-1.58,2.58-.35,3.17a1.327,1.327,0,0,0,1.91-1,.748.748,0,0,0-.5-.81c-.29-.13-.72-.19-.86.18-.14.39.69.16.72.6a.66.66,0,0,1-.49.58.773.773,0,0,1-.78-.17,1.258,1.258,0,0,1-.24-1.26,1.027,1.027,0,0,1,1.2-.78,2.736,2.736,0,0,1,2.47,1.57,7.9,7.9,0,0,1,.39.9c.13.57-.36.24-.7.19a3.745,3.745,0,0,0-1.78.24,8.968,8.968,0,0,1-1.43.33c-.92.18-1.86.2-2.78.31-.76.09-2.52.21-2.62-.94-.02-.24.32-.78.61-.52.15.14-.1.39-.07.56a1.073,1.073,0,0,0,.42.5c1.17.44,1.67-2.45-.14-2.23a1.914,1.914,0,0,0-1.48,2.2,11.7,11.7,0,0,0-1.32-.11,4.322,4.322,0,0,0-1.42.24,3.92,3.92,0,0,0-2.16,1.78c-.54.95-1.27,2.17-2.58,1.63a.753.753,0,0,1,.07-1.48c.04.12.02.25.06.37a1.2,1.2,0,0,0,.16.32,1.009,1.009,0,0,0,.68.37c.2.02.32-.09.37-.3.18-.74.03-1.9-.92-1.96a1.824,1.824,0,0,0-1.81,1.65c.03,1.7,1.97,1.82,3.21,1.43Zm23.17-11.73a.38.38,0,0,1,.38.38.371.371,0,0,1-.2.33.38.38,0,0,1-.22.06.166.166,0,0,1-.17-.09.37.37,0,0,1-.16-.31.38.38,0,0,1,.38-.38Zm-11.18-2.62a1.228,1.228,0,0,1,.05-.39.626.626,0,0,1,.3-.32c.15-.07.26.06.35.2.23.35-.12.99-.37,1.11a.166.166,0,0,1-.16-.06c-.08-.17-.13-.35-.2-.52h.04Zm3.6,7.65a7.307,7.307,0,0,1,.97-4.15c.13-.24.12-.29.24-.04.56,1.22-.32,2.72-.95,3.71a2.5,2.5,0,0,0-.18.48h-.09Zm-8.1,1.66a.38.38,0,1,1-.38.38A.38.38,0,0,1,370.18,84.37Zm-5.62,2.2a2.585,2.585,0,0,1,1.45-.84,3.219,3.219,0,0,1,.98-.06c.08,0,.59.14.64.07-.19.36-.71.3-1.05.42a3.079,3.079,0,0,0-.94.6,3.208,3.208,0,0,1-1.85,1.06c.03,0,.68-1.15.78-1.26Zm-3.9.35h.14a.876.876,0,0,0-.16.02h.01Z"/>
      <path id="Pfad_69" data-name="Pfad 69" d="M387.14,78.58c.34.47.84.3,1.32.32,2.86.1.9,4.84,1.7,6.42a2.72,2.72,0,0,0,.36.65,2.618,2.618,0,0,0,1.75.91c.7.04,1.44-.45,2.12-.21.47.17.85.76,1.38.43.41-.26.33-.87.78-1.11.51-.27,1.19.1,1.69.21,1.33.31,2.73,1.02,4.13.96,1.29-.05,2.47-.93,3.79-.53,1.85.55,3.12,2.2,4.94,2.77,1.25.39,3.19.27,3.22-1.43a1.824,1.824,0,0,0-1.81-1.65c-.95.06-1.09,1.22-.92,1.96.05.21.17.32.37.3a.987.987,0,0,0,.67-.37.962.962,0,0,0,.16-.32c.04-.12.03-.25.06-.37a.753.753,0,0,1,.07,1.48c-1.3.53-2.04-.69-2.57-1.63a3.92,3.92,0,0,0-2.16-1.78,4.278,4.278,0,0,0-1.42-.24,11.7,11.7,0,0,0-1.32.11,1.91,1.91,0,0,0-1.47-2.2c-1.81-.22-1.3,2.67-.14,2.23a1.134,1.134,0,0,0,.42-.5c.03-.17-.22-.42-.06-.56.28-.25.63.28.61.52-.1,1.15-1.86,1.03-2.62.94-.93-.11-1.87-.13-2.78-.31a9.889,9.889,0,0,1-1.43-.33,3.728,3.728,0,0,0-1.78-.24c-.33.05-.82.39-.7-.19a7.973,7.973,0,0,1,.4-.9,2.725,2.725,0,0,1,2.47-1.57,1.022,1.022,0,0,1,1.2.78,1.236,1.236,0,0,1-.24,1.26.768.768,0,0,1-.78.17.648.648,0,0,1-.49-.58c.03-.44.86-.21.72-.6-.13-.37-.57-.31-.85-.18a.77.77,0,0,0-.5.81,1.327,1.327,0,0,0,1.91,1c1.23-.59,1.15-2.99-.35-3.17-.62-.08-1.14.31-1.71.46.35-.09.51-.65.65-.93a4.875,4.875,0,0,1,.89-1.14,4.694,4.694,0,0,1,2.45-1.18c.95-.16,2.3-.21,2.98.6.75.9.91,2.16-.26,2.72a.718.718,0,0,1-.97-.62c-.13-.87.68-.03,1-.08s.28-.49.18-.71c-.44-.91-1.67-.01-1.93.54-.51,1.11.81,1.62,1.71,1.39a2.207,2.207,0,0,0,1.33-1.06,2.571,2.571,0,0,0-1.1-2.86c-1.55-.97-3.13-.54-4.71.06a2.7,2.7,0,0,0-1.18.91c-.04.05-.09.09-.17.19-.22-2.29-2.14-4.85-.91-7.12.64-1.18,1.98-.9,2.77-.04a2.254,2.254,0,0,1,.62,1.5,1.313,1.313,0,0,1-1.22,1.28c.15.01.11-1.15.06-1.27-.17-.41-.77-.86-1.21-.5-1.15.96.09,2.74,1.42,2.33A1.954,1.954,0,0,0,401,74.14a2.5,2.5,0,0,0-3.91-1.89c-1.52,1.06-.77,3.06-.35,4.5a20.7,20.7,0,0,1,.77,2.66c.15.97-.1,2.37-1.17,2.75a7.277,7.277,0,0,0-.3-1.61,17.852,17.852,0,0,0-.88-2.12c-.17-.48.46-1.6-.34-1.6-.42,0-.88.68-.98,1.04a7.577,7.577,0,0,0-.18.95,5.515,5.515,0,0,0,.08,1.9c.03.1.46,1.64.48,1.64-.05,0-.09.02-.1,0-.57-.43-1.54.02-1.93.49-1.23,1.5,1.59,2.85,1.92,1.4a.718.718,0,0,0-.48-.76h0a.434.434,0,0,0-.53.6c.2-.06,1.03-.18.56.26-.73.66-1.87-.95-.66-1.48a1.115,1.115,0,0,1,1.47.39h0c.31.54.76,1.68.32,2.23a3.424,3.424,0,0,1-3.19.68c-1.42-.67-.99-2.9-1.01-4.13a6.393,6.393,0,0,0-.78-3.24c-.38-.63-1.46-2.02-2.33-1.51a.921.921,0,0,0-.32,1.3Zm25.84,8.33h.15a.876.876,0,0,1-.16-.02Zm-6.17-1.24a3.219,3.219,0,0,1,.98.06,2.561,2.561,0,0,1,1.44.84c.1.11.75,1.26.78,1.26a3.32,3.32,0,0,1-1.85-1.06,3.131,3.131,0,0,0-.94-.6c-.34-.12-.86-.06-1.05-.42.04.07.56-.06.64-.07Zm-3.2-.55a.38.38,0,1,1,.38-.38A.38.38,0,0,1,403.61,85.12Zm-4.66-9.54s-.12.08-.16.06c-.25-.13-.61-.77-.37-1.11.09-.13.2-.27.35-.2a.775.775,0,0,1,.3.32,1,1,0,0,1,.05.39h.04a4,4,0,0,1-.2.52Zm-4.65,2.93c.12-.26.11-.21.24.04a7.307,7.307,0,0,1,.97,4.15h-.09a2.477,2.477,0,0,0-.17-.48c-.63-.99-1.51-2.49-.95-3.71Zm-6.37-.84a.38.38,0,0,1,.38.38.4.4,0,0,1-.16.31.182.182,0,0,1-.17.09.38.38,0,0,1-.22-.06.371.371,0,0,1-.2-.33.38.38,0,0,1,.38-.38Z"/>
    </g>
    <path id="Pfad_70" data-name="Pfad 70" d="M420.62,121.59c-7.23,2.26-9.97,13.54-1.41,15.91,7.15,1.97,14.14-9.64,6.03-11.35-1.68-.35-4.42.64-4,2.81.38,2.01,3.89,2.5,3.37.05.11.5-3.73-.68-1.08-1.73,1.99-.79,3.49,1.6,3.6,3.27.41,6.54-10.38,7.39-12.01,1.38a6.442,6.442,0,0,1,1.95-6.95c2-1.8,4.26-3.03,7.03-2.64,4.57.65,7.35,3.18,8.57,6.22.03-1.09.08-2.19.13-3.28a11.075,11.075,0,0,0-12.18-3.7Z"/>
    <path id="Pfad_71" data-name="Pfad 71" d="M353.18,121.59c7.23,2.26,9.97,13.54,1.41,15.91-7.15,1.97-14.14-9.64-6.03-11.35,1.68-.35,4.42.64,4,2.81-.38,2.01-3.89,2.5-3.37.05-.11.5,3.73-.68,1.08-1.73-1.99-.79-3.49,1.6-3.6,3.27-.41,6.54,10.38,7.39,12.01,1.38a6.442,6.442,0,0,0-1.95-6.95c-2-1.8-4.26-3.03-7.03-2.64-4.57.65-7.35,3.18-8.57,6.22-.03-1.09-.08-2.19-.13-3.28a11.075,11.075,0,0,1,12.18-3.7Z"/>
    <g id="Gruppe_62" data-name="Gruppe 62">
      <g id="Gruppe_60" data-name="Gruppe 60">
        <path id="Pfad_72" data-name="Pfad 72" d="M364.14,70.94a11.375,11.375,0,0,0,.22-1.15,12.574,12.574,0,0,0,.16-1.32c.04-.51.07-1.09.06-1.71a8.03,8.03,0,0,0-.04-.97,7.4,7.4,0,0,0-.12-1.03,8.474,8.474,0,0,0-.22-1.07,7.358,7.358,0,0,0-.32-1.08,10.216,10.216,0,0,0-1.03-2.1,5.479,5.479,0,0,0-.71-.97l-.39-.47-.44-.41-.44-.42-.48-.44c-.31-.29-.62-.57-.93-.86a18.237,18.237,0,0,1-1.72-1.8,15.686,15.686,0,0,1-1.45-1.83,18.562,18.562,0,0,1-1.15-1.74,13.5,13.5,0,0,1-.84-1.54c-.24-.46-.4-.89-.55-1.24s-.22-.63-.29-.82-.09-.3-.09-.3.18.39.55,1.03c.19.32.4.72.7,1.14s.6.91.99,1.42a18.245,18.245,0,0,0,1.26,1.6,21.072,21.072,0,0,0,1.52,1.67c.54.56,1.09,1.14,1.73,1.69.31.28.62.56.94.84l.46.42.49.46.48.46.42.52a6.776,6.776,0,0,1,.76,1.08,6,6,0,0,1,.6,1.15,7.407,7.407,0,0,1,.44,1.19,6.549,6.549,0,0,1,.29,1.18,7.681,7.681,0,0,1,.14,1.15,8.064,8.064,0,0,1,.04,1.09c0,.35-.01.69-.04,1.02a11.677,11.677,0,0,1-.25,1.75,12.825,12.825,0,0,1-.34,1.31,7.813,7.813,0,0,1-.41,1.1Z"/>
        <path id="Pfad_73" data-name="Pfad 73" d="M370,68.14s.03-.25.08-.7.1-1.08.14-1.82c.02-.37.03-.78.03-1.2s-.03-.87-.06-1.32c-.03-.22-.06-.45-.09-.68-.05-.22-.1-.45-.15-.67a4.046,4.046,0,0,0-.55-1.21,1.935,1.935,0,0,0-.42-.48l-.24-.21-.31-.23c-.41-.29-.79-.59-1.17-.88a10.52,10.52,0,0,1-1.07-.89c-.33-.3-.64-.58-.92-.85q-.39-.435-.69-.81a3.5,3.5,0,0,1-.48-.66c-.24-.39-.35-.61-.35-.61s.2.18.51.49a3.671,3.671,0,0,0,.6.52c.25.19.52.4.8.63.31.21.64.45.99.69s.71.51,1.12.76.82.52,1.22.81l.3.21.34.28a3.047,3.047,0,0,1,.59.65,4.95,4.95,0,0,1,.66,1.54,8.518,8.518,0,0,1,.19,1.54,11.676,11.676,0,0,1-.28,2.66,15.056,15.056,0,0,1-.52,1.79,5.67,5.67,0,0,1-.27.65Z"/>
        <path id="Pfad_74" data-name="Pfad 74" d="M408.31,70.94a11.375,11.375,0,0,1-.22-1.15,12.574,12.574,0,0,1-.16-1.32c-.04-.51-.07-1.09-.06-1.71a8.03,8.03,0,0,1,.04-.97,7.4,7.4,0,0,1,.12-1.03,8.474,8.474,0,0,1,.22-1.07,7.358,7.358,0,0,1,.32-1.08,10.216,10.216,0,0,1,1.03-2.1,5.479,5.479,0,0,1,.71-.97l.39-.47.44-.41.44-.42.48-.44c.31-.29.62-.57.93-.86a18.237,18.237,0,0,0,1.72-1.8,15.686,15.686,0,0,0,1.45-1.83,18.562,18.562,0,0,0,1.15-1.74,13.5,13.5,0,0,0,.84-1.54c.24-.46.4-.89.55-1.24s.22-.63.29-.82.09-.3.09-.3-.18.39-.55,1.03c-.19.32-.4.72-.7,1.14s-.6.91-.99,1.42a18.245,18.245,0,0,1-1.26,1.6,21.072,21.072,0,0,1-1.52,1.67c-.54.56-1.09,1.14-1.73,1.69-.31.28-.62.56-.94.84l-.46.42-.49.46-.48.46-.42.52a6.776,6.776,0,0,0-.76,1.08,6,6,0,0,0-.6,1.15,7.407,7.407,0,0,0-.44,1.19,6.549,6.549,0,0,0-.29,1.18,7.681,7.681,0,0,0-.14,1.15,8.064,8.064,0,0,0-.04,1.09c0,.35.01.69.04,1.02a11.677,11.677,0,0,0,.25,1.75,12.825,12.825,0,0,0,.34,1.31,7.813,7.813,0,0,0,.41,1.1Z"/>
        <path id="Pfad_75" data-name="Pfad 75" d="M402.45,68.14s-.03-.25-.08-.7-.1-1.08-.14-1.82c-.02-.37-.03-.78-.03-1.2s.03-.87.06-1.32c.03-.22.06-.45.09-.68.05-.22.1-.45.15-.67a4.046,4.046,0,0,1,.55-1.21,1.935,1.935,0,0,1,.42-.48l.24-.21.31-.23c.41-.29.79-.59,1.17-.88a10.52,10.52,0,0,0,1.07-.89c.33-.3.64-.58.92-.85q.39-.435.69-.81a3.5,3.5,0,0,0,.48-.66c.24-.39.35-.61.35-.61s-.2.18-.51.49a3.291,3.291,0,0,1-.6.52c-.25.19-.52.4-.8.63-.31.21-.64.45-.99.69s-.71.51-1.12.76-.82.52-1.22.81l-.3.21-.34.28a3.047,3.047,0,0,0-.59.65,4.95,4.95,0,0,0-.66,1.54,8.518,8.518,0,0,0-.19,1.54,11.676,11.676,0,0,0,.28,2.66,15.056,15.056,0,0,0,.52,1.79,5.67,5.67,0,0,0,.27.65Z"/>
      </g>
      <g id="Gruppe_61" data-name="Gruppe 61">
        <path id="Pfad_76" data-name="Pfad 76" d="M364.14,157.68s.11.42.22,1.15a12.574,12.574,0,0,1,.16,1.32c.04.51.07,1.09.06,1.71a8.03,8.03,0,0,1-.04.97,7.4,7.4,0,0,1-.12,1.03,7.985,7.985,0,0,1-.22,1.06,7.358,7.358,0,0,1-.32,1.08,10.216,10.216,0,0,1-1.03,2.1,5.479,5.479,0,0,1-.71.97l-.39.47-.44.42-.44.42-.48.44c-.31.29-.62.57-.93.86a18.236,18.236,0,0,0-1.72,1.8,15.686,15.686,0,0,0-1.45,1.83,18.562,18.562,0,0,0-1.15,1.74,13.5,13.5,0,0,0-.84,1.54c-.24.46-.4.89-.55,1.24s-.22.63-.29.82-.09.29-.09.29.18-.39.55-1.03c.19-.32.4-.72.7-1.14s.6-.91.99-1.42a18.248,18.248,0,0,1,1.26-1.6,21.07,21.07,0,0,1,1.52-1.67c.54-.56,1.09-1.14,1.73-1.69.31-.28.62-.56.94-.84l.46-.41.49-.46.48-.46.42-.52a6.776,6.776,0,0,0,.76-1.08,6,6,0,0,0,.6-1.15,7.407,7.407,0,0,0,.44-1.19,6.35,6.35,0,0,0,.29-1.18,7.681,7.681,0,0,0,.14-1.15,8.064,8.064,0,0,0,.04-1.09c0-.35-.01-.69-.04-1.02a11.677,11.677,0,0,0-.25-1.75,12.826,12.826,0,0,0-.34-1.31,7.814,7.814,0,0,0-.41-1.1Z"/>
        <path id="Pfad_77" data-name="Pfad 77" d="M370,160.48s.03.25.08.7.1,1.08.14,1.82c.02.37.03.78.03,1.21s-.03.87-.06,1.32c-.03.22-.06.45-.09.68-.05.22-.1.45-.15.67a4.163,4.163,0,0,1-.55,1.21,1.935,1.935,0,0,1-.42.48l-.24.21-.31.23c-.41.29-.79.59-1.17.88a10.52,10.52,0,0,0-1.07.89c-.33.3-.64.58-.92.85q-.39.435-.69.81a3.5,3.5,0,0,0-.48.66c-.24.39-.35.61-.35.61s.2-.18.51-.49a3.671,3.671,0,0,1,.6-.52c.25-.19.52-.4.8-.63.31-.21.64-.45.99-.69s.71-.51,1.12-.76.82-.52,1.22-.81l.3-.21.34-.28a3.047,3.047,0,0,0,.59-.65,4.95,4.95,0,0,0,.66-1.54,8.518,8.518,0,0,0,.19-1.54,11.676,11.676,0,0,0-.28-2.66,15.056,15.056,0,0,0-.52-1.79,5.67,5.67,0,0,0-.27-.65Z"/>
        <path id="Pfad_78" data-name="Pfad 78" d="M408.31,157.68s-.11.42-.22,1.15a12.574,12.574,0,0,0-.16,1.32c-.04.51-.07,1.09-.06,1.71a8.03,8.03,0,0,0,.04.97,7.4,7.4,0,0,0,.12,1.03,7.985,7.985,0,0,0,.22,1.06,7.358,7.358,0,0,0,.32,1.08,10.216,10.216,0,0,0,1.03,2.1,5.479,5.479,0,0,0,.71.97l.39.47.44.42.44.42.48.44c.31.29.62.57.93.86a18.236,18.236,0,0,1,1.72,1.8,15.686,15.686,0,0,1,1.45,1.83,18.562,18.562,0,0,1,1.15,1.74,13.5,13.5,0,0,1,.84,1.54c.24.46.4.89.55,1.24s.22.63.29.82.09.29.09.29-.18-.39-.55-1.03c-.19-.32-.4-.72-.7-1.14s-.6-.91-.99-1.42a18.248,18.248,0,0,0-1.26-1.6,21.07,21.07,0,0,0-1.52-1.67c-.54-.56-1.09-1.14-1.73-1.69-.31-.28-.62-.56-.94-.84l-.46-.41-.49-.46-.48-.46-.42-.52a6.776,6.776,0,0,1-.76-1.08,6,6,0,0,1-.6-1.15,7.407,7.407,0,0,1-.44-1.19,6.35,6.35,0,0,1-.29-1.18,7.681,7.681,0,0,1-.14-1.15,8.064,8.064,0,0,1-.04-1.09c0-.35.01-.69.04-1.02a11.677,11.677,0,0,1,.25-1.75,12.826,12.826,0,0,1,.34-1.31,7.814,7.814,0,0,1,.41-1.1Z"/>
        <path id="Pfad_79" data-name="Pfad 79" d="M402.45,160.48s-.03.25-.08.7-.1,1.08-.14,1.82c-.02.37-.03.78-.03,1.21s.03.87.06,1.32c.03.22.06.45.09.68.05.22.1.45.15.67a4.163,4.163,0,0,0,.55,1.21,1.935,1.935,0,0,0,.42.48l.24.21.31.23c.41.29.79.59,1.17.88a10.52,10.52,0,0,1,1.07.89c.33.3.64.58.92.85q.39.435.69.81a3.5,3.5,0,0,1,.48.66c.24.39.35.61.35.61s-.2-.18-.51-.49a3.291,3.291,0,0,0-.6-.52c-.25-.19-.52-.4-.8-.63-.31-.21-.64-.45-.99-.69s-.71-.51-1.12-.76-.82-.52-1.22-.81l-.3-.21-.34-.28a3.047,3.047,0,0,1-.59-.65,4.95,4.95,0,0,1-.66-1.54,8.518,8.518,0,0,1-.19-1.54,11.676,11.676,0,0,1,.28-2.66,15.056,15.056,0,0,1,.52-1.79,5.67,5.67,0,0,1,.27-.65Z"/>
      </g>
    </g>
    <g id="Gruppe_65" data-name="Gruppe 65">
      <g id="Gruppe_63" data-name="Gruppe 63">
        <path id="Pfad_80" data-name="Pfad 80" d="M342.86,136.4s-.42-.11-1.15-.22a12.574,12.574,0,0,0-1.32-.16c-.51-.04-1.09-.07-1.71-.06a8.033,8.033,0,0,0-.97.04,7.4,7.4,0,0,0-1.03.12,7.988,7.988,0,0,0-1.06.22,7.36,7.36,0,0,0-1.08.32,6.228,6.228,0,0,0-1.07.45,6.165,6.165,0,0,0-1.03.58,5.478,5.478,0,0,0-.97.71l-.47.39-.42.44-.42.44-.44.48c-.29.31-.57.62-.86.93a18.239,18.239,0,0,1-1.8,1.72,15.685,15.685,0,0,1-1.83,1.45,17.346,17.346,0,0,1-1.74,1.15,13.5,13.5,0,0,1-1.54.84c-.46.24-.89.4-1.24.55s-.63.22-.82.29-.29.09-.29.09.39-.18,1.03-.55c.32-.19.72-.4,1.14-.7s.91-.6,1.42-.99a18.251,18.251,0,0,0,1.6-1.26,21.079,21.079,0,0,0,1.67-1.52c.56-.54,1.14-1.09,1.69-1.73.28-.31.56-.62.84-.94l.42-.46.46-.49.46-.48.52-.42a6.774,6.774,0,0,1,1.08-.76,6,6,0,0,1,1.15-.6,7.406,7.406,0,0,1,1.19-.44,6.547,6.547,0,0,1,1.18-.29,7.677,7.677,0,0,1,1.15-.14,8.062,8.062,0,0,1,1.09-.04c.35,0,.69.01,1.02.04a11.673,11.673,0,0,1,1.75.25,12.82,12.82,0,0,1,1.31.34,7.814,7.814,0,0,1,1.1.41Z"/>
        <path id="Pfad_81" data-name="Pfad 81" d="M340.06,130.53s-.25-.03-.7-.08-1.08-.1-1.82-.14c-.37-.02-.78-.03-1.2-.03s-.87.03-1.32.06l-.68.09-.67.15a4.163,4.163,0,0,0-1.21.55,1.936,1.936,0,0,0-.48.42l-.21.24-.23.31c-.29.41-.59.79-.88,1.17a10.516,10.516,0,0,1-.89,1.07c-.3.33-.58.64-.85.92q-.435.39-.81.69a3.5,3.5,0,0,1-.66.48c-.39.24-.61.36-.61.36s.18-.2.49-.51a3.67,3.67,0,0,0,.52-.6c.19-.25.4-.52.63-.8.21-.31.45-.64.69-.99s.51-.71.76-1.12.52-.82.81-1.22l.21-.3.28-.34a3.047,3.047,0,0,1,.65-.59,4.949,4.949,0,0,1,1.54-.66,8.519,8.519,0,0,1,1.54-.19,11.676,11.676,0,0,1,2.66.28,15.053,15.053,0,0,1,1.79.52,5.666,5.666,0,0,1,.65.27Z"/>
        <path id="Pfad_82" data-name="Pfad 82" d="M342.86,92.22s-.42.11-1.15.22a12.576,12.576,0,0,1-1.32.16c-.51.04-1.09.07-1.71.06a8.031,8.031,0,0,1-.97-.04,7.4,7.4,0,0,1-1.03-.12,7.989,7.989,0,0,1-1.06-.22,7.362,7.362,0,0,1-1.08-.32,10.214,10.214,0,0,1-2.1-1.03,5.478,5.478,0,0,1-.97-.71l-.47-.39-.42-.44-.42-.44-.44-.48c-.29-.31-.57-.62-.86-.93a18.239,18.239,0,0,0-1.8-1.72,15.686,15.686,0,0,0-1.83-1.45,17.349,17.349,0,0,0-1.74-1.15,13.5,13.5,0,0,0-1.54-.84c-.46-.24-.89-.4-1.24-.55s-.63-.22-.82-.29-.29-.09-.29-.09.39.18,1.03.55c.32.19.72.4,1.14.7s.91.6,1.42.99a18.249,18.249,0,0,1,1.6,1.26,21.077,21.077,0,0,1,1.67,1.52c.56.54,1.14,1.09,1.69,1.73.28.31.56.62.84.94l.42.46.46.49.46.48.52.42a6.775,6.775,0,0,0,1.08.76,6,6,0,0,0,1.15.6,10.98,10.98,0,0,0,2.37.73,7.676,7.676,0,0,0,1.15.14,8.062,8.062,0,0,0,1.09.04c.35,0,.69-.01,1.02-.04a11.674,11.674,0,0,0,1.75-.25,12.82,12.82,0,0,0,1.31-.34,7.814,7.814,0,0,0,1.1-.41Z"/>
        <path id="Pfad_83" data-name="Pfad 83" d="M340.06,98.08s-.25.03-.7.08-1.08.1-1.82.14c-.37.02-.78.03-1.2.03s-.87-.03-1.32-.06l-.68-.09-.67-.15a4.163,4.163,0,0,1-1.21-.55,1.935,1.935,0,0,1-.48-.42l-.21-.24-.23-.31c-.29-.41-.59-.79-.88-1.17a10.516,10.516,0,0,0-.89-1.07c-.3-.33-.58-.64-.85-.92q-.435-.39-.81-.69a3.5,3.5,0,0,0-.66-.48c-.39-.24-.61-.35-.61-.35s.18.2.49.51a3.671,3.671,0,0,1,.52.6c.19.25.4.52.63.8.21.31.45.64.69.99s.51.71.76,1.12.52.82.81,1.22l.21.3.28.34a3.047,3.047,0,0,0,.65.59,4.949,4.949,0,0,0,1.54.66,8.519,8.519,0,0,0,1.54.19,11.676,11.676,0,0,0,2.66-.28,15.053,15.053,0,0,0,1.79-.52,5.669,5.669,0,0,0,.65-.27Z"/>
      </g>
      <g id="Gruppe_64" data-name="Gruppe 64">
        <path id="Pfad_84" data-name="Pfad 84" d="M429.59,136.4s.42-.11,1.15-.22a12.574,12.574,0,0,1,1.32-.16c.51-.04,1.09-.07,1.71-.06a8.033,8.033,0,0,1,.97.04,7.4,7.4,0,0,1,1.03.12,7.988,7.988,0,0,1,1.06.22,7.36,7.36,0,0,1,1.08.32,6.228,6.228,0,0,1,1.07.45,6.165,6.165,0,0,1,1.03.58,5.478,5.478,0,0,1,.97.71l.47.39.42.44.42.44.44.48c.29.31.57.62.86.93a18.239,18.239,0,0,0,1.8,1.72,15.685,15.685,0,0,0,1.83,1.45,17.346,17.346,0,0,0,1.74,1.15,13.5,13.5,0,0,0,1.54.84c.46.24.89.4,1.24.55s.63.22.82.29.29.09.29.09-.39-.18-1.03-.55c-.32-.19-.72-.4-1.14-.7s-.91-.6-1.42-.99a18.251,18.251,0,0,1-1.6-1.26,21.079,21.079,0,0,1-1.67-1.52c-.56-.54-1.14-1.09-1.69-1.73-.28-.31-.56-.62-.84-.94l-.42-.46-.46-.49-.46-.48-.52-.42a6.774,6.774,0,0,0-1.08-.76,6,6,0,0,0-1.15-.6,7.406,7.406,0,0,0-1.19-.44,6.547,6.547,0,0,0-1.18-.29,7.677,7.677,0,0,0-1.15-.14,8.062,8.062,0,0,0-1.09-.04c-.35,0-.69.01-1.02.04a11.673,11.673,0,0,0-1.75.25,12.82,12.82,0,0,0-1.31.34,7.814,7.814,0,0,0-1.1.41Z"/>
        <path id="Pfad_85" data-name="Pfad 85" d="M432.39,130.53s.25-.03.7-.08,1.08-.1,1.82-.14c.37-.02.78-.03,1.2-.03s.87.03,1.32.06l.68.09.67.15a4.163,4.163,0,0,1,1.21.55,1.936,1.936,0,0,1,.48.42l.21.24.23.31c.29.41.59.79.88,1.17a10.516,10.516,0,0,0,.89,1.07c.3.33.58.64.85.92q.435.39.81.69a3.5,3.5,0,0,0,.66.48c.39.24.61.36.61.36s-.18-.2-.49-.51a3.67,3.67,0,0,1-.52-.6c-.19-.25-.4-.52-.63-.8-.21-.31-.45-.64-.69-.99s-.51-.71-.76-1.12-.52-.82-.81-1.22l-.21-.3-.28-.34a3.047,3.047,0,0,0-.65-.59,4.949,4.949,0,0,0-1.54-.66,8.519,8.519,0,0,0-1.54-.19,11.676,11.676,0,0,0-2.66.28,15.053,15.053,0,0,0-1.79.52,5.666,5.666,0,0,0-.65.27Z"/>
        <path id="Pfad_86" data-name="Pfad 86" d="M429.59,92.22s.42.11,1.15.22a12.576,12.576,0,0,0,1.32.16c.51.04,1.09.07,1.71.06a8.031,8.031,0,0,0,.97-.04,7.4,7.4,0,0,0,1.03-.12,7.989,7.989,0,0,0,1.06-.22,7.362,7.362,0,0,0,1.08-.32,10.214,10.214,0,0,0,2.1-1.03,5.478,5.478,0,0,0,.97-.71l.47-.39.42-.44.42-.44.44-.48c.29-.31.57-.62.86-.93a18.239,18.239,0,0,1,1.8-1.72,15.686,15.686,0,0,1,1.83-1.45,17.349,17.349,0,0,1,1.74-1.15,13.5,13.5,0,0,1,1.54-.84c.46-.24.89-.4,1.24-.55s.63-.22.82-.29.29-.09.29-.09-.39.18-1.03.55c-.32.19-.72.4-1.14.7s-.91.6-1.42.99a18.249,18.249,0,0,0-1.6,1.26,21.077,21.077,0,0,0-1.67,1.52c-.56.54-1.14,1.09-1.69,1.73-.28.31-.56.62-.84.94l-.42.46-.46.49-.46.48-.52.42a6.775,6.775,0,0,1-1.08.76,6,6,0,0,1-1.15.6,10.98,10.98,0,0,1-2.37.73,7.676,7.676,0,0,1-1.15.14,8.062,8.062,0,0,1-1.09.04c-.35,0-.69-.01-1.02-.04a11.674,11.674,0,0,1-1.75-.25,12.82,12.82,0,0,1-1.31-.34,7.814,7.814,0,0,1-1.1-.41Z"/>
        <path id="Pfad_87" data-name="Pfad 87" d="M432.39,98.08s.25.03.7.08,1.08.1,1.82.14c.37.02.78.03,1.2.03s.87-.03,1.32-.06l.68-.09.67-.15a4.163,4.163,0,0,0,1.21-.55,1.935,1.935,0,0,0,.48-.42l.21-.24.23-.31c.29-.41.59-.79.88-1.17a10.516,10.516,0,0,1,.89-1.07c.3-.33.58-.64.85-.92q.435-.39.81-.69a3.5,3.5,0,0,1,.66-.48c.39-.24.61-.35.61-.35s-.18.2-.49.51a3.671,3.671,0,0,0-.52.6c-.19.25-.4.52-.63.8-.21.31-.45.64-.69.99s-.51.71-.76,1.12-.52.82-.81,1.22l-.21.3-.28.34a3.047,3.047,0,0,1-.65.59,4.949,4.949,0,0,1-1.54.66,8.519,8.519,0,0,1-1.54.19,11.676,11.676,0,0,1-2.66-.28,15.053,15.053,0,0,1-1.79-.52,5.669,5.669,0,0,1-.65-.27Z"/>
      </g>
    </g>
    <g id="Gruppe_66" data-name="Gruppe 66">
      <path id="Pfad_88" data-name="Pfad 88" d="M384.5,64.66l2.01-29.61,2.16,29.61Z"/>
      <path id="Pfad_89" data-name="Pfad 89" d="M384.5,164.66l2.01,29.61,2.16-29.61Z"/>
    </g>
    <g id="Gruppe_67" data-name="Gruppe 67">
      <path id="Pfad_90" data-name="Pfad 90" d="M436,112.58l29.61,2.01L436,116.74Z"/>
      <path id="Pfad_91" data-name="Pfad 91" d="M337,112.58l-29.61,2.01L337,116.74Z"/>
    </g>
    <g id="Gruppe_68" data-name="Gruppe 68">
      <path id="Pfad_92" data-name="Pfad 92" d="M423.83,148.54l19.52,22.36-22.47-19.41Z"/>
      <path id="Pfad_93" data-name="Pfad 93" d="M353.12,77.83,330.76,58.31l19.41,22.47Z"/>
    </g>
    <g id="Gruppe_69" data-name="Gruppe 69">
      <path id="Pfad_94" data-name="Pfad 94" d="M419.88,77.83l22.36-19.52L422.83,80.78Z"/>
      <path id="Pfad_95" data-name="Pfad 95" d="M349.17,148.54,329.65,170.9l22.47-19.41Z"/>
    </g>
  </g>
</svg>
